<svg viewBox="0 0 512 512" xmlns="http://www.w3.org/2000/svg">
  <!-- Background circle -->
  <circle cx="256" cy="256" r="240" fill="#3b82f6" stroke="#1e40af" stroke-width="8"/>
  
  <!-- Calculator body -->
  <rect x="140" y="80" width="232" height="352" rx="20" fill="#f8fafc" stroke="#e2e8f0" stroke-width="4"/>
  
  <!-- Display screen -->
  <rect x="160" y="120" width="192" height="80" rx="8" fill="#1e293b" stroke="#475569" stroke-width="2"/>
  <text x="336" y="170" text-anchor="end" fill="#f1f5f9" font-family="monospace" font-size="28" font-weight="bold">123.45</text>
  
  <!-- Button grid -->
  <!-- Row 1 -->
  <rect x="165" y="220" width="38" height="32" rx="4" fill="#e2e8f0" stroke="#cbd5e1" stroke-width="1"/>
  <text x="184" y="240" text-anchor="middle" fill="#374151" font-family="sans-serif" font-size="16" font-weight="bold">7</text>
  
  <rect x="215" y="220" width="38" height="32" rx="4" fill="#e2e8f0" stroke="#cbd5e1" stroke-width="1"/>
  <text x="234" y="240" text-anchor="middle" fill="#374151" font-family="sans-serif" font-size="16" font-weight="bold">8</text>
  
  <rect x="265" y="220" width="38" height="32" rx="4" fill="#e2e8f0" stroke="#cbd5e1" stroke-width="1"/>
  <text x="284" y="240" text-anchor="middle" fill="#374151" font-family="sans-serif" font-size="16" font-weight="bold">9</text>
  
  <rect x="315" y="220" width="38" height="32" rx="4" fill="#fbbf24" stroke="#f59e0b" stroke-width="1"/>
  <text x="334" y="240" text-anchor="middle" fill="#374151" font-family="sans-serif" font-size="16" font-weight="bold">รท</text>
  
  <!-- Row 2 -->
  <rect x="165" y="265" width="38" height="32" rx="4" fill="#e2e8f0" stroke="#cbd5e1" stroke-width="1"/>
  <text x="184" y="285" text-anchor="middle" fill="#374151" font-family="sans-serif" font-size="16" font-weight="bold">4</text>
  
  <rect x="215" y="265" width="38" height="32" rx="4" fill="#e2e8f0" stroke="#cbd5e1" stroke-width="1"/>
  <text x="234" y="285" text-anchor="middle" fill="#374151" font-family="sans-serif" font-size="16" font-weight="bold">5</text>
  
  <rect x="265" y="265" width="38" height="32" rx="4" fill="#e2e8f0" stroke="#cbd5e1" stroke-width="1"/>
  <text x="284" y="285" text-anchor="middle" fill="#374151" font-family="sans-serif" font-size="16" font-weight="bold">6</text>
  
  <rect x="315" y="265" width="38" height="32" rx="4" fill="#fbbf24" stroke="#f59e0b" stroke-width="1"/>
  <text x="334" y="285" text-anchor="middle" fill="#374151" font-family="sans-serif" font-size="16" font-weight="bold">ร</text>
  
  <!-- Row 3 -->
  <rect x="165" y="310" width="38" height="32" rx="4" fill="#e2e8f0" stroke="#cbd5e1" stroke-width="1"/>
  <text x="184" y="330" text-anchor="middle" fill="#374151" font-family="sans-serif" font-size="16" font-weight="bold">1</text>
  
  <rect x="215" y="310" width="38" height="32" rx="4" fill="#e2e8f0" stroke="#cbd5e1" stroke-width="1"/>
  <text x="234" y="330" text-anchor="middle" fill="#374151" font-family="sans-serif" font-size="16" font-weight="bold">2</text>
  
  <rect x="265" y="310" width="38" height="32" rx="4" fill="#e2e8f0" stroke="#cbd5e1" stroke-width="1"/>
  <text x="284" y="330" text-anchor="middle" fill="#374151" font-family="sans-serif" font-size="16" font-weight="bold">3</text>
  
  <rect x="315" y="310" width="38" height="32" rx="4" fill="#fbbf24" stroke="#f59e0b" stroke-width="1"/>
  <text x="334" y="330" text-anchor="middle" fill="#374151" font-family="sans-serif" font-size="16" font-weight="bold">-</text>
  
  <!-- Enter button -->
  <rect x="215" y="355" width="88" height="32" rx="4" fill="#10b981" stroke="#059669" stroke-width="1"/>
  <text x="259" y="375" text-anchor="middle" fill="#ffffff" font-family="sans-serif" font-size="14" font-weight="bold">ENTER</text>
  
  <!-- Plus button -->
  <rect x="315" y="355" width="38" height="32" rx="4" fill="#fbbf24" stroke="#f59e0b" stroke-width="1"/>
  <text x="334" y="375" text-anchor="middle" fill="#374151" font-family="sans-serif" font-size="16" font-weight="bold">+</text>
</svg>